<svg width="30" height="30" viewBox="0 0 30 30" fill="none" xmlns="http://www.w3.org/2000/svg">
<path d="M0 15C0 6.71573 6.71573 0 15 0V0C23.2843 0 30 6.71573 30 15V15C30 23.2843 23.2843 30 15 30V30C6.71573 30 0 23.2843 0 15V15Z" fill="black"/>
<path d="M9.80976 6.61432L5.59462 10.9308C5.49704 11.0275 5.44318 11.1615 5.44597 11.3005C5.44374 11.4442 5.49719 11.583 5.59462 11.6865L9.78852 16.003C9.88559 16.0989 10.0147 16.1533 10.1495 16.1552C10.2887 16.1513 10.4221 16.0974 10.5264 16.003L14.7416 11.6865C14.839 11.583 14.8924 11.4442 14.8902 11.3005C14.893 11.1615 14.8391 11.0275 14.7416 10.9308L10.5264 6.61432C10.4254 6.51454 10.2899 6.45981 10.1495 6.4621C10.0137 6.45924 9.88295 6.51439 9.78852 6.61432H9.80976ZM10.8715 6.27726L12.5544 8.01691C13.2785 7.4338 14.0316 6.88944 14.8106 6.38599L14.9008 6.32618L14.9751 6.38599C15.007 6.38599 24 12.1812 24 17.6992C24.0034 18.9862 23.5179 20.2241 22.6463 21.1513C21.7902 22.0688 20.6046 22.5874 19.3655 22.5865C18.4255 22.5876 17.5047 22.3141 16.7111 21.7982C16.132 21.4352 15.6388 20.945 15.2671 20.363C15.6759 23.5053 18.9514 23.6901 19.3283 23.6901H19.3602V24H10.4043V23.6901H10.4362C10.8131 23.6901 14.078 23.5053 14.4974 20.363C14.1176 20.9381 13.626 21.4267 13.0534 21.7982C12.259 22.3122 11.3387 22.5855 10.399 22.5865C9.16459 22.5815 7.98552 22.0612 7.13415 21.1459C6.25667 20.2226 5.77022 18.9821 5.78042 17.6937C5.78999 16.9882 5.91747 16.2894 6.15734 15.6279C6.38896 14.9921 6.68616 14.3834 7.0439 13.8121L5.27079 12.0073C5.09574 11.8157 4.99888 11.5629 5.00004 11.3005C4.99775 11.0412 5.09497 10.7913 5.27079 10.6046L9.51777 6.25551C9.69531 6.09113 9.92608 6.00008 10.1654 6C10.4198 6.00019 10.6645 6.09929 10.8503 6.27726H10.8715Z" fill="url(#paint0_linear_10138_55770)"/>
<defs>
<linearGradient id="paint0_linear_10138_55770" x1="14.5" y1="6" x2="14.5" y2="24" gradientUnits="userSpaceOnUse">
<stop stop-color="#005AFF"/>
<stop offset="1" stop-color="#0292FF"/>
</linearGradient>
</defs>
</svg>
