<svg width="28" height="28" viewBox="0 0 28 28" fill="none" xmlns="http://www.w3.org/2000/svg">
<circle cx="14" cy="14" r="14" fill="#090E12"/>
<path d="M20.86 9.44952C20.7201 8.39899 17.921 12.6212 17.5539 13.0529L14.2177 6.13573C14.1933 6.09385 14.1608 6.05964 14.123 6.03602C14.0851 6.0124 14.043 6.00006 14.0003 6.00006C13.9576 6.00006 13.9155 6.0124 13.8777 6.03602C13.8398 6.05964 13.8073 6.09385 13.7829 6.13573L10.4468 13.0529C10.4468 13.0529 8.82644 11.469 7.80726 10.4982C7.38136 10.0925 7.04577 10.2612 7.09925 10.847C7.27119 12.73 7.62658 16.6223 7.84125 18.975C7.93352 19.9863 8.76486 20.756 9.78034 20.7582C12.0769 20.7633 15.9188 20.7561 18.1799 20.7509C19.2122 20.7485 20.0721 19.9607 20.1689 18.933C20.4572 15.8715 20.9694 10.2703 20.86 9.44952Z" fill="#FFCD34"/>
</svg>
