<svg width="30" height="30" viewBox="0 0 30 30" fill="none" xmlns="http://www.w3.org/2000/svg">
<rect width="29.9956" height="30" rx="14.9978" fill="black"/>
<path d="M16.4778 9.99854H13.9258L14.3702 15.0442H15.199H16.0278L16.4778 9.99854Z" fill="white"/>
<path d="M19.7254 11.9624C18.0051 11.9624 16.9034 12.3919 16.7197 13.6057H18.8459C18.9136 13.2976 19.2035 13.1949 19.7254 13.1949C20.4019 13.1949 20.5662 13.4283 20.5662 13.8858V14.0072C17.1643 13.8485 16.4395 14.5394 16.4395 15.6972C16.4395 16.7243 17.2223 17.2098 18.6816 17.2098C19.6094 17.2098 20.2183 16.911 20.5662 16.5749V17.0697H22.9437V13.8858C22.9437 12.2425 21.4264 11.9624 19.7254 11.9624ZM20.5662 15.7065C20.3053 15.94 19.8994 16.108 19.3872 16.108C19.0779 16.108 18.7203 16.0427 18.7203 15.6599C18.7203 15.1463 19.3775 15.109 20.5662 15.165V15.7065Z" fill="white"/>
<path d="M13.7169 15.0436C13.8522 12.728 11.9676 11.9624 10.4116 11.9624C8.73963 11.9624 7 12.6627 7 14.5861C7 16.5095 8.75896 17.2098 10.4599 17.2098C11.9 17.2098 13.311 16.7523 13.6396 15.3891H11.465C11.2718 15.6599 10.9528 15.8373 10.4599 15.8373C9.75441 15.8373 9.38716 15.5105 9.26152 15.0436H13.7169ZM10.4116 13.3349C11.0205 13.3349 11.3394 13.6151 11.4747 14.0726H9.27118C9.40649 13.6431 9.73508 13.3349 10.4116 13.3349Z" fill="white"/>
<path d="M9.59272 18.9723H8.47803V19.3795H8.99592C8.94659 19.5033 8.82082 19.6176 8.55202 19.6176C8.21662 19.6176 7.99714 19.4485 7.99714 19.1294C7.99714 18.8127 8.1673 18.6437 8.50269 18.6437C8.75177 18.6437 8.87754 18.7199 8.95399 18.8532H9.55572C9.44475 18.4341 9.00578 18.2627 8.50516 18.2627C7.95028 18.2627 7.40527 18.4937 7.40527 19.1294C7.40527 19.7676 7.94289 19.9986 8.54955 19.9986C9.21787 19.9986 9.6593 19.7033 9.59272 18.9723ZM12.3022 19.9629H12.9113L12.1123 18.296H11.3592L10.5626 19.9629H11.1718L11.2803 19.7057H12.1912L12.3022 19.9629ZM11.443 19.3199L11.6909 18.7175H11.7879L12.0309 19.3199H11.443ZM19.6631 19.5795H18.5213V19.3009H19.5694V18.9151H18.5213V18.6818H19.6384V18.296H17.9368V19.9629H19.6631V19.5795ZM22.083 18.9223C21.787 18.8937 21.5725 18.8842 21.5725 18.7699C21.5725 18.6746 21.6958 18.6413 21.9325 18.6413C22.1569 18.6413 22.295 18.6913 22.295 18.8056H22.8894C22.8894 18.5175 22.6724 18.2627 21.9399 18.2627C21.2691 18.2627 20.9905 18.458 20.9905 18.7961C20.9905 19.1294 21.1779 19.2366 21.7081 19.3152C22.2038 19.389 22.3715 19.3819 22.3715 19.4938C22.3715 19.5866 22.2334 19.62 22.0016 19.62C21.7599 19.62 21.5626 19.5771 21.5626 19.4223H20.951C20.951 19.7724 21.2395 19.9986 21.9695 19.9986C22.6477 19.9986 23.0003 19.8343 23.0003 19.4342C23.0003 19.0128 22.623 18.9771 22.083 18.9223Z" fill="white"/>
<path d="M15.2069 19.3912L15.6114 18.2959H16.4647V19.9627H15.8802L15.8792 18.8793L15.4649 19.9627H14.948L14.5337 18.8793V19.9627H13.9492V18.2959H14.8025L15.2069 19.3912Z" fill="white"/>
<path fill-rule="evenodd" clip-rule="evenodd" d="M15.9989 16.5049C15.8394 16.4256 15.669 16.3687 15.4928 16.3361C15.669 16.3034 15.8394 16.2466 15.9989 16.1672C16.0744 16.13 16.1172 16.0675 16.1172 15.9882C16.1172 15.8887 16.0443 15.8091 15.9415 15.793C15.8978 15.7867 15.8573 15.7671 15.8258 15.7372V15.7372C15.7948 15.7067 15.7746 15.6676 15.768 15.6254C15.7513 15.5261 15.6687 15.4557 15.5659 15.4557C15.4839 15.4557 15.4193 15.497 15.3808 15.57C15.2986 15.7241 15.2397 15.8888 15.2059 16.0591C15.1722 15.8888 15.1134 15.7241 15.0313 15.5699C14.9929 15.4969 14.9283 15.4556 14.8462 15.4556C14.7431 15.4556 14.6608 15.526 14.6441 15.6253C14.6376 15.6675 14.6173 15.7067 14.5864 15.7371V15.7371C14.5549 15.7671 14.5144 15.7866 14.4707 15.7929C14.3678 15.8091 14.2949 15.8888 14.2949 15.9881C14.2949 16.0674 14.3377 16.1299 14.4133 16.1671C14.5727 16.2465 14.7431 16.3033 14.9193 16.336C14.7431 16.3686 14.5727 16.4255 14.4133 16.5049C14.3377 16.542 14.2949 16.6044 14.2949 16.6837C14.2949 16.7833 14.3678 16.8628 14.4707 16.879C14.5144 16.8853 14.5549 16.9049 14.5864 16.9348V16.9348C14.6173 16.9653 14.6375 17.0044 14.6441 17.0466C14.6608 17.1459 14.7434 17.2164 14.8462 17.2164C14.9283 17.2164 14.9929 17.175 15.0313 17.1021C15.1135 16.948 15.1724 16.7834 15.2063 16.6132C15.24 16.7834 15.2989 16.948 15.3811 17.1021C15.4195 17.175 15.4842 17.2164 15.5662 17.2164C15.6693 17.2164 15.7516 17.1459 15.7683 17.0466C15.7749 17.0044 15.7951 16.9653 15.8261 16.9348V16.9348C15.8576 16.9049 15.8981 16.8854 15.9418 16.879C16.0446 16.8628 16.1175 16.7831 16.1175 16.6837C16.1172 16.6045 16.0744 16.5421 15.9989 16.5049Z" fill="#FF1351"/>
</svg>
