<svg width="28" height="28" viewBox="0 0 28 28" fill="none" xmlns="http://www.w3.org/2000/svg">
<path d="M14 28C21.732 28 28 21.732 28 14C28 6.26801 21.732 0 14 0C6.26801 0 0 6.26801 0 14C0 21.732 6.26801 28 14 28Z" fill="#090E12"/>
<path d="M6.42114 12.2198L9.54026 14.5867C9.89665 14.857 10.046 15.3362 9.91011 15.7738L8.71801 19.6046C8.41387 20.5832 9.48606 21.3971 10.2835 20.7924L13.4026 18.4251C13.759 18.1544 14.2412 18.1544 14.5976 18.4251L17.7167 20.7924C18.5138 21.3971 19.5863 20.5832 19.2822 19.6046L18.0906 15.7738C17.954 15.3362 18.1034 14.857 18.4601 14.5867L21.5789 12.2198C22.3756 11.6148 21.9666 10.298 20.9814 10.298H17.1259C16.6856 10.298 16.2943 10.0016 16.1586 9.564L14.9674 5.73448C14.6629 4.75517 13.3376 4.75517 13.0328 5.73448L11.8408 9.56419C11.7052 10.0018 11.3153 10.2982 10.8742 10.2982H7.01861C6.0334 10.2982 5.6244 11.6149 6.42114 12.2198Z" fill="#F2C94C"/>
</svg>
