<svg width="28" height="28" viewBox="0 0 28 28" fill="none" xmlns="http://www.w3.org/2000/svg">
<path d="M14 28C21.732 28 28 21.732 28 14C28 6.26801 21.732 0 14 0C6.26801 0 0 6.26801 0 14C0 21.732 6.26801 28 14 28Z" fill="#090E12"/>
<path d="M22 13.0717C22 12.5992 21.6126 12.2278 21.1579 12.2278H16.9979C16.3411 12.2278 15.8021 11.6878 15.8021 11.0295V6.84388C15.8021 6.37131 15.4147 6 14.96 6H13.0737C12.6021 6 12.2316 6.38819 12.2316 6.84388V11.0127C12.2316 11.6709 11.6926 12.211 11.0358 12.211H6.84211C6.37053 12.211 6 12.5992 6 13.0549V14.9451C6 15.4177 6.38737 15.789 6.84211 15.789H11.0021C11.6589 15.789 12.1979 16.3291 12.1979 16.9873V21.1561C12.1979 21.6287 12.5853 22 13.04 22H14.9263C15.3979 22 15.7684 21.6118 15.7684 21.1561V17.0211C15.7684 16.3629 16.3074 15.8228 16.9642 15.8228H21.1242C21.5958 15.8228 21.9663 15.4346 21.9663 14.9789L22 13.0717Z" fill="#F2C94C"/>
</svg>
