<svg width="28" height="28" viewBox="0 0 28 28" fill="none" xmlns="http://www.w3.org/2000/svg">
<path d="M14 28C21.732 28 28 21.732 28 14C28 6.26801 21.732 0 14 0C6.26801 0 0 6.26801 0 14C0 21.732 6.26801 28 14 28Z" fill="#090E12"/>
<path d="M18.8 14C18.8 16.6466 16.6466 18.8 13.9999 18.8C11.3532 18.8 9.19982 16.6466 9.19982 14C9.19982 11.3533 11.3532 9.1999 13.9999 9.1999C16.6466 9.1999 18.8 11.3533 18.8 14ZM16.9595 13.0513C16.9324 12.9702 16.8618 12.911 16.7774 12.898L15.0025 12.6267L14.2069 10.9314C14.1692 10.8513 14.0887 10.8 13.9999 10.8C13.9113 10.8 13.8308 10.8515 13.7931 10.9314L12.9975 12.6267L11.2227 12.898C11.138 12.911 11.0677 12.97 11.0405 13.0513C11.0134 13.1327 11.0339 13.2221 11.0935 13.2835L12.3778 14.5999L11.9485 16.463C11.9287 16.5495 11.9608 16.6398 12.0307 16.6947C12.1007 16.7493 12.1964 16.7584 12.2752 16.7177L13.9999 15.834L15.7243 16.7175C15.7571 16.7346 15.7931 16.7427 15.8286 16.7427C15.8787 16.7427 15.9283 16.7265 15.9688 16.6945C16.039 16.6398 16.071 16.5493 16.051 16.4628L15.6217 14.5997L16.906 13.2833C16.9663 13.2221 16.9867 13.1325 16.9596 13.0513L16.9595 13.0513ZM20.8459 15.8356C20.7364 16.2447 20.8177 16.6741 20.8963 17.0897C20.9609 17.4313 21.0343 17.8191 20.9295 18.0003C20.8209 18.1877 20.444 18.3191 20.1112 18.4345C19.7159 18.5721 19.3064 18.7142 19.0111 19.0095C18.7149 19.3059 18.5728 19.7152 18.4351 20.1107C18.3192 20.4434 18.1883 20.8201 18.0011 20.9287C17.9783 20.9417 17.9099 20.9813 17.7323 20.9813C17.5437 20.9813 17.3133 20.938 17.0905 20.8955C16.835 20.8471 16.5458 20.7924 16.2679 20.7924C16.1107 20.7924 15.9697 20.8096 15.8375 20.8444C15.4404 20.951 15.1173 21.2302 14.8045 21.5008C14.5206 21.7466 14.2278 22 13.9999 22C13.7715 22 13.4787 21.7468 13.1952 21.5013C12.8824 21.231 12.5591 20.9514 12.1639 20.846C12.0314 20.8106 11.8894 20.7934 11.7308 20.7934C11.4539 20.7934 11.1647 20.8481 10.9096 20.8965C10.6856 20.9388 10.4552 20.9823 10.2669 20.9823C10.09 20.9823 10.0214 20.9425 9.99896 20.9297C9.81137 20.8209 9.67996 20.4441 9.56439 20.1113C9.42676 19.7159 9.2846 19.3064 8.98936 19.0112C8.69299 18.715 8.28368 18.5728 7.88815 18.4352C7.55539 18.3193 7.17871 18.1884 7.07011 18.0012C6.96547 17.82 7.03862 17.4328 7.10329 17.0908C7.1821 16.673 7.26279 16.2447 7.15382 15.8361C7.04805 15.4409 6.76845 15.1174 6.49829 14.805C6.25319 14.5207 6 14.2279 6 14C6 13.7716 6.2532 13.4789 6.49867 13.1953C6.76903 12.8825 7.04865 12.5592 7.15401 12.164C7.26355 11.7549 7.18229 11.3254 7.10367 10.9099C7.03901 10.5683 6.96566 10.1805 7.07049 9.99931C7.17909 9.81191 7.55599 9.6805 7.88872 9.56512C8.28408 9.42749 8.69359 9.28534 8.98883 8.9901C9.28501 8.69372 9.42717 8.28442 9.56482 7.88889C9.68077 7.55613 9.81161 7.17945 9.99883 7.07086C10.0216 7.05785 10.0903 7.01806 10.2679 7.01806C10.457 7.01806 10.6868 7.0618 10.9093 7.10403C11.1643 7.1523 11.4528 7.20697 11.7322 7.20697C11.8891 7.20697 12.029 7.19019 12.1606 7.1555C12.5597 7.04861 12.8829 6.7692 13.1953 6.49886C13.4794 6.25321 13.7722 6 13.9999 6C14.2283 6 14.5211 6.2532 14.8046 6.49867C15.1174 6.76903 15.4407 7.04864 15.8359 7.15401C15.9682 7.18926 16.1096 7.2066 16.2684 7.2066C16.5442 7.2066 16.8342 7.15193 17.0897 7.10367C17.3135 7.06106 17.5442 7.0177 17.7326 7.0177C17.9094 7.0177 17.9782 7.05748 18.0006 7.0703C18.1882 7.17908 18.3197 7.55593 18.4352 7.88872C18.5729 8.28407 18.715 8.69358 19.0102 8.98881C19.3066 9.285 19.7159 9.42715 20.1115 9.5648C20.4442 9.68075 20.8209 9.81159 20.9295 9.99881C21.0341 10.18 20.961 10.5672 20.8963 10.9092C20.8175 11.327 20.7368 11.7553 20.8458 12.1639C20.9516 12.5591 21.2312 12.8826 21.5013 13.195C21.7468 13.4793 22 13.7721 22 14C22 14.2284 21.7468 14.5211 21.5013 14.8047C21.2312 15.1173 20.9513 15.4406 20.846 15.8356L20.8459 15.8356ZM19.7144 14C19.7144 10.8492 17.1509 8.28596 14.0003 8.28596C10.8493 8.28596 8.28573 10.8492 8.28573 14C8.28573 17.1508 10.8492 19.714 13.9998 19.714C17.1508 19.714 19.7144 17.1506 19.7144 14Z" fill="#FFCD34"/>
</svg>
