<svg width="28" height="28" viewBox="0 0 28 28" fill="none" xmlns="http://www.w3.org/2000/svg">
<circle cx="14" cy="14" r="14" fill="#090E12"/>
<path d="M21.9111 15.0349C21.5912 13.3559 20.232 11.9966 18.553 11.6768C18.2331 11.5969 17.9133 11.5969 17.6734 11.5969C17.0338 9.75789 15.9144 8.47861 14.7951 7.5991C15.2748 7.5991 15.5946 7.27928 15.5946 6.79955C15.5946 6.31982 15.2748 6 14.7951 6H9.1982C8.71847 6 8.39865 6.31982 8.39865 6.79955C8.39865 7.27928 8.71847 7.5991 9.1982 7.5991H10.0777C9.1982 9.43807 9.11825 12.0766 9.1982 13.3559C7.35924 13.9156 6 15.5946 6 17.5935C6 19.9921 7.99888 21.991 10.3975 21.991C12.7962 21.991 14.7951 19.9921 14.7951 17.5935C14.7951 15.2748 13.036 13.4358 10.7973 13.196C10.7973 11.357 11.0372 8.87838 11.8367 7.67906C12.7962 8.07883 15.1149 9.27816 16.0743 11.8367C15.5147 12.0766 15.0349 12.3964 14.5552 12.7962C14.3953 12.9561 14.4752 13.116 14.5552 13.2759C15.6746 14.3953 16.3942 15.9144 16.3942 17.5935C16.3942 18.3131 16.2343 19.0327 15.9944 19.7523C15.9144 19.9122 15.9944 20.1521 16.1543 20.1521C16.634 20.312 17.1138 20.3919 17.5935 20.3919C20.312 20.3919 22.4708 17.9133 21.9111 15.0349Z" fill="#F2C94C"/>
</svg>
