<svg width="28" height="28" viewBox="0 0 28 28" fill="none" xmlns="http://www.w3.org/2000/svg">
<g clip-path="url(#clip0_9527_35763)">
<path d="M14 28C21.732 28 28 21.732 28 14C28 6.26801 21.732 0 14 0C6.26801 0 0 6.26801 0 14C0 21.732 6.26801 28 14 28Z" fill="#090E12"/>
<g clip-path="url(#clip1_9527_35763)">
<path d="M13.1845 14.7738C11.9843 14.7738 8.45178 14.7738 8.45178 14.7738C8.07678 14.7738 7.76994 15.0686 7.76994 15.4288V20.345C7.76994 20.7053 8.07678 21 8.45178 21C8.45178 21 12.0582 21 13.2641 21C13.4245 21 13.4245 20.8345 13.4245 20.8345V14.9964C13.4245 14.9964 13.4245 14.7738 13.1845 14.7738Z" fill="#FFCD34"/>
<path d="M19.5492 14.7738C19.5492 14.7738 16.0032 14.7738 14.8213 14.7738C14.5333 14.7738 14.5764 15.0619 14.5764 15.0619V20.8398C14.5764 20.8398 14.5741 20.9999 14.7473 20.9999C15.9478 20.9999 19.5491 20.9999 19.5491 20.9999C19.9241 20.9999 20.231 20.7051 20.231 20.3449V15.4288C20.2311 15.0686 19.9242 14.7738 19.5492 14.7738Z" fill="#FFCD34"/>
<path d="M13.4245 10.9052C13.4245 10.9052 13.4245 10.6832 13.1962 10.6832C11.8291 10.6832 7.68184 10.6832 7.68184 10.6832C7.30684 10.6832 7 10.978 7 11.3382V13.3828C7 13.743 7.30684 14.0378 7.68184 14.0378C7.68184 14.0378 11.8476 14.0378 13.2149 14.0378C13.4245 14.0378 13.4245 13.8631 13.4245 13.8631V10.9052Z" fill="#FFCD34"/>
<path d="M20.3182 10.6832C20.3182 10.6832 16.1692 10.6832 14.7862 10.6832C14.5756 10.6832 14.5756 10.8761 14.5756 10.8761V13.8672C14.5756 13.8672 14.5756 14.0378 14.8317 14.0378C16.2033 14.0378 20.3182 14.0378 20.3182 14.0378C20.6932 14.0378 21 13.743 21 13.3828V11.3382C21 10.978 20.6932 10.6832 20.3182 10.6832Z" fill="#FFCD34"/>
<path d="M11.1047 10.1992C10.7928 10.1992 10.5078 10.1754 10.258 10.1285C9.62333 10.0094 9.18714 9.7776 8.92446 9.41988C8.68909 9.09929 8.61707 8.70407 8.71031 8.24513C8.87364 7.44218 9.43497 7 10.2908 7C10.4719 7 10.6708 7.02009 10.882 7.05975C11.4193 7.16058 12.1065 7.45655 12.7203 7.85144C13.7618 8.52149 13.8133 8.93804 13.7614 9.19311C13.6852 9.56791 13.3205 9.83572 12.6466 10.0119C12.1912 10.1309 11.6293 10.1992 11.1047 10.1992ZM10.2908 8.04981C9.95939 8.04981 9.84548 8.13877 9.78294 8.44642C9.73177 8.69796 9.7963 8.78581 9.81746 8.81468C9.90608 8.93542 10.1369 9.03611 10.4675 9.0981C10.6459 9.1316 10.8663 9.1493 11.1047 9.1493C11.6289 9.1493 12.0907 9.073 12.3972 8.98953C12.4195 8.98347 12.4541 8.95813 12.417 8.9369C12.0164 8.62337 11.2834 8.20472 10.6725 8.09004C10.5302 8.06341 10.4017 8.04981 10.2908 8.04981Z" fill="#FFCD34"/>
<path d="M16.9112 10.1992C16.3867 10.1992 15.8247 10.1309 15.3693 10.0119C14.6953 9.83572 14.3307 9.56786 14.2545 9.19311C14.2027 8.93804 14.2541 8.52149 15.2956 7.85144C15.9094 7.45655 16.5966 7.16058 17.1339 7.05975C17.3452 7.02009 17.5441 7 17.725 7C18.581 7 19.1423 7.44223 19.3055 8.24518C19.3988 8.70407 19.3269 9.09929 19.0914 9.41988C18.8288 9.77765 18.3926 10.0094 17.7578 10.1285C17.508 10.1754 17.2231 10.1992 16.9112 10.1992ZM15.6076 8.93036C15.5721 8.95016 15.5893 8.98142 15.6077 8.98653C15.914 9.07114 16.3807 9.1493 16.9111 9.1493C17.1496 9.1493 17.3699 9.1316 17.5483 9.0981C17.8789 9.03606 18.1098 8.93542 18.1984 8.81468C18.2196 8.78581 18.2842 8.69796 18.2329 8.44642C18.1704 8.13877 18.0565 8.04981 17.725 8.04981C17.6142 8.04981 17.4858 8.06337 17.3434 8.09009C16.7324 8.20472 16.0083 8.61679 15.6076 8.93036Z" fill="#FFCD34"/>
</g>
</g>
<defs>
<clipPath id="clip0_9527_35763">
<rect width="28" height="28" fill="white"/>
</clipPath>
<clipPath id="clip1_9527_35763">
<rect width="14" height="14" fill="white" transform="translate(7 7)"/>
</clipPath>
</defs>
</svg>
