<svg width="28" height="28" viewBox="0 0 28 28" fill="none" xmlns="http://www.w3.org/2000/svg">
<circle cx="14" cy="14" r="14" fill="#090E12"/>
<path d="M14 8C8.54857 8 6.14857 13.52 6.05143 13.754C5.98286 13.91 5.98286 14.09 6.05143 14.246C6.14857 14.48 8.54857 20 14 20C19.4514 20 21.8514 14.48 21.9486 14.246C22.0171 14.09 22.0171 13.91 21.9486 13.754C21.8514 13.52 19.4514 8 14 8ZM14 17.6C12.1086 17.6 10.5714 15.986 10.5714 14C10.5714 12.014 12.1086 10.4 14 10.4C15.8914 10.4 17.4286 12.014 17.4286 14C17.4286 15.986 15.8914 17.6 14 17.6Z" fill="#FFCD34"/>
</svg>
