<svg width="28" height="28" viewBox="0 0 28 28" fill="none" xmlns="http://www.w3.org/2000/svg">
<path d="M14 28C21.732 28 28 21.732 28 14C28 6.26801 21.732 0 14 0C6.26801 0 0 6.26801 0 14C0 21.732 6.26801 28 14 28Z" fill="#090E12"/>
<path d="M14 6C9.58933 6 6 9.58933 6 14C6 18.4108 9.58933 22 14 22C18.4108 22 22 18.4108 22 14C22 9.58933 18.4108 6 14 6ZM19.7052 11.3664C20.0007 12.0037 20.1925 12.6981 20.2587 13.4288H19.1104C19.0523 12.9051 18.9148 12.405 18.7109 11.9404L19.7052 11.3664ZM17.6226 8.86809C18.2073 9.28196 18.7182 9.79289 19.1321 10.3776L18.1385 10.9513C17.8316 10.536 17.4642 10.1685 17.0489 9.86169L17.6226 8.86809ZM10.3774 8.86791L10.9511 9.86151C10.536 10.1682 10.1685 10.5356 9.86169 10.9508L8.86809 10.3771C9.28196 9.79271 9.79271 9.28178 10.3774 8.86791ZM8.29493 11.366L9.28924 11.9401C9.08533 12.4046 8.94791 12.9047 8.8896 13.4286H7.74151C7.80764 12.698 7.99947 12.0036 8.29493 11.366ZM8.29493 16.6341C7.99947 15.9966 7.80764 15.302 7.74151 14.5714H8.8896C8.94791 15.0953 9.08516 15.5954 9.28924 16.0601L8.29493 16.6341ZM10.3776 19.1321C9.79289 18.7182 9.28213 18.2075 8.86809 17.6228L9.86169 17.0491C10.1685 17.4642 10.5358 17.8316 10.9511 18.1383L10.3776 19.1321ZM13.4286 7.74151V8.8896C12.9049 8.94773 12.4048 9.08516 11.9401 9.28907L11.366 8.29493C12.0036 7.99947 12.698 7.80764 13.4286 7.74151ZM13.4286 20.2587C12.6981 20.1924 12.0037 20.0007 11.3664 19.7052L11.9404 18.7109C12.405 18.9148 12.9051 19.0521 13.4288 19.1104V20.2587H13.4286ZM13.557 15.1255L12.6261 15.8583L12.1417 15.3739L12.8816 14.4347C13.0859 14.1947 13.0859 13.8052 12.8816 13.5652L12.1417 12.626L12.6261 12.1415L13.557 12.8743C13.797 13.0791 14.1829 13.0752 14.4197 12.866L15.3339 12.101L15.8992 12.6663L15.1419 13.5726C14.9321 13.8087 14.9321 14.1913 15.1419 14.4276L15.8992 15.3339L15.3339 15.8992L14.4197 15.134C14.1829 14.9246 13.7968 14.9209 13.557 15.1255ZM14.5714 20.2587V19.1104C15.0951 19.0523 15.5952 18.9148 16.0596 18.7109L16.6336 19.7054C15.9963 20.0007 15.3019 20.1925 14.5714 20.2587ZM16.0597 9.28907C15.5952 9.08516 15.0951 8.94791 14.5714 8.8896V7.74151C15.3019 7.80764 15.9964 7.99947 16.6338 8.29476L16.0597 9.28907ZM17.6226 19.1321L17.0489 18.1383C17.464 17.8315 17.8315 17.464 18.1383 17.0489L19.1321 17.6226C18.718 18.2073 18.2073 18.7182 17.6226 19.1321ZM19.7052 16.634L18.7108 16.0599C18.9147 15.5954 19.0521 15.0953 19.1104 14.5716H20.2587C20.1924 15.302 20.0007 15.9964 19.7052 16.634Z" fill="#F2C94C"/>
</svg>
