<svg xmlns="http://www.w3.org/2000/svg" viewBox="0 0 596 105"><path d="M385.3 10.3c-1 1-1.8 1.5-.5 1.5 2.6 0 14.2-2.5 14.2-4.8 0-1.1 1.7-2.8 3-4.2 1.6-1.5 2.8-2.8 1.5-2.8-2.7 0-15.5 4.7-15.5 7 0 1.2-1.5 2.4-2.7 3.3Zm-28 94.1H562c30.5-10.9 46.5-50 21.9-50a316 316 0 0 0-29 8.7c-19.6 6.6-40.8 13.6-49.7 11-3.2-3 .6-6.4 5.5-10.6 5.1-4.5 11.3-10 11.3-16.8 0-4.3-5.3-2.2-10-.3-3 1.2-5.7 2.3-6.8 1.6-2.6-1.8-3.7-6.8 0-10.7 1.7-1.7 5.9-5 10.7-8.6 13.2-10 31.2-23.9 16.6-22C521 8.2 501 20.7 484 31.3c-13.2 8.2-24.6 15.4-28.8 15.4-4.4 0 2.3-5.3 9.7-11 8.9-7 18.7-14.6 11-14.6-11 0-17 8.2-21.4 14.2a46.3 46.3 0 0 1-3.4 4.3c-6.1 6-34.3 5.5-20.5-2.3 2.7-1.5 6-2.1 9.6-2.8 4-.7 8-1.4 12-3.6 10.1-5.7 11-10.6 6.2-13.6-7-4.3-19.3 4.5-32.2 13.9a120 120 0 0 1-25.4 15.5c-7.3 2.6-8.3 5.9-9 8-.2 1.1-.5 2-1.3 2.2-1.3.5-10.4 1.8-6.5-2.6 1.8-2.1 6.8-5.6 12.3-9.5 8.4-6 18-12.6 18.6-16.1 1.7-8.6-9.7-8.4-11.5-7.6-1 .3-.2-.6.8-1.8 1.6-2 4-5 .7-4.6a74 74 0 0 0-20.8 6.4c-10.7 4.8-25.6 12-38.4 18.3-12.5 6-22.8 11.1-25.3 12-6.5 2.1-12.2-.1 2.6-4.7a80 80 0 0 0 19.3-9.4c6.9-4.9 9.3-9.3 3.4-9.3-8.5 0-17.1 4.8-25 9.1l-4.7 2.5c-4.8 2.5-11.2 6.5-18.5 11.3-6.9 3.1-13.7 5.5-17.6 4.6-6.5-1.5-7-6-2.7-12.7 1-1.6 6-5.5 12-10 13-10.3 30.5-24 16.7-22.2-9.8 1.3-25.8 12-41 22.4-16 10.9-31.2 21.2-37.6 19.2-2.6-2.6 5.5-8.8 13-14.3 7.9-6 15-11.3 7.7-11.3-10.2 0-14.9 7-19 13.1-1.6 2.4-3 4.6-4.8 6.3-6.1 6-30 5.5-16.3-2.3l7.9-3.5 8.4-3.7c10.2-5.8 11-10.7 6.3-13.6-7.5-7-18.3 1.4-30 10.6-7.4 5.7-15.1 11.8-22.6 14.5a24 24 0 0 0-12.7 11.3c-1 1.6-1.8 2.9-2.6 3.2-1.3.5-10.4 1.8-6.5-2.6 1.8-2.2 6.8-5.7 12.3-9.5 8.4-6 18-12.7 18.6-16.2 1.7-8.6-9.7-8.3-11.5-7.6-1 .4-.5 0 .5-1 1.5-1.4 4.4-4 4.4-6.3v-.8c.2-2.7.2-2.8-24.2 8.1-9 4-22.5 10.7-35.3 17-17.2 8.4-33.2 16.3-35.1 16.3-3 0-5.5-3 9.3-7.7a80 80 0 0 0 19.3-9.4c6.9-4.8 9.3-9.3 3.4-9.3-8.5 0-17.1 4.8-25 9.2l-4.7 2.5A670.5 670.5 0 0 0 27 85.8c-11.4 8-21.3 15-27 18.7h354.5c1 .2 2 .2 2.9 0Zm124-45a114 114 0 0 0-7 5.6l-6 5.5c-6.2 6-11.2 10.8-14.8 7.6-2.8-2.5.5-4.3 5.5-7.1 3.3-1.9 7.4-4.1 11-7.3a44 44 0 0 0 7.7-9.4c3-4.4 4.8-7.2 8.7-4.9 4.7 2.8.9 5.6-5 10ZM386 41.2c0 2.3-15.4 12.7-18.2 10.1-2.8-2.5 8.5-10.4 13.4-13.1 4.8-2.8 17.6-9.2 17.6-7 0 1.2-3.2 3.1-6.3 5-3.2 2-6.5 3.9-6.5 5ZM367.3 8.7 362 12c-2.5 1.5-5.3 2.7-7.7 3.8-5.6 2.4-9.8 4.3-6.7 7.1 3 2.6 6 0 10.1-3.5 2.2-2 4.6-4 7.4-5.7 3.3-1.9 6.7-3 9.6-4 4.3-1.4 7.1-2.3 5.2-4.7-2.3-3.1-6.9-.1-12.6 3.6ZM526 54.9c0 2.3 2.2 4.2 4.8 4.2 2.7 0 4.8-1.9 4.8-4.2 0-2.3-2.1-4.2-4.8-4.2-2.6 0-4.8 1.9-4.8 4.2ZM397.6 70c3.2 0-3 6-11.1 13.5-18 14-3.2-4.3-.5-7.5 2-2.3 7.5-5.5 11.6-6Zm-240-54.8c-1.2 1.2-2.1 2.2-.7 2.2 2.6 0 12.8-3.6 12.8-5.9 0-1.2 1.6-2.4 2.7-3.2 1-.8 1.8-1.3.5-1.3-2.6 0-12.8 2.2-12.8 4.5 0 1.1-1.4 2.5-2.5 3.7ZM253.5 65c-2.2 1.6-4.7 3.4-7.1 5.6l-6 5.5c-6.2 6-11.2 10.7-14.8 7.6-2.8-2.5.5-4.4 5.5-7.2 3.3-1.8 7.4-4 11-7.2a44 44 0 0 0 7.7-9.5c3-4.3 4.8-7.1 8.7-4.8 4.7 2.8.9 5.6-5 10Zm-101-14.2c-5 3.6-10.7 7.8-12.6 6-2.8-2.4 8.5-10.3 13.4-13 4.8-2.8 17.6-9.3 17.6-7 0 1.2-3 3.1-6.1 5-2.8 1.8-5.7 3.5-6.7 5-1.5.8-3.5 2.3-5.7 4Zm-13-36.6-5.4 3.4a78.2 78.2 0 0 1-6.3 3.3c-5.2 2.5-8.5 4.1-5.3 7.1 2.8 2.5 4.6.5 7.4-2.4 1.9-2 4.1-4.4 7.4-6.3 3.2-1.9 6.6-3 9.5-3.9 4.3-1.4 7.1-2.3 5.2-4.8-2.3-3-6.9 0-12.6 3.6Zm37.6 55c19.9-6.7-7.4 12.2-14.2 16.4-14.9 9.1-6.4-3.2-2.8-5.9a87 87 0 0 1 17-10.4Z"/></svg>