<svg xmlns="http://www.w3.org/2000/svg" fill="none" viewBox="0 0 193 43"><path fill="#F8CB4C" fill-rule="evenodd" d="M142.18 27.82a11.1 11.1 0 0 1-.04-1.74c0-3.17.02-6.36 0-9.53 0-.17-.05-.95.05-1.05.1-.09 1.5-.05 1.74-.05.23 0 1.3-.05 1.4.05.1.1.03 1.69.05 1.98 0 .13.04 0 .1-.13a3.45 3.45 0 0 1 2.15-1.9 3.5 3.5 0 0 1 1.46-.22c.1.03.08.02.1.15.06.22 0 1.57 0 1.91a9 9 0 0 1-.03 1.47c-.7.06-1-.04-1.72.2-1.59.53-2.06 1.6-2.06 3.17 0 1.65-.02 3.33 0 4.97.02.27 0 .53-.05.8-.1.08-1.91.04-2.18.04-.17 0-.84.05-.95-.07l-.02-.05Zm-7.76.48c-2.45-.04-4.59-.97-5.88-3.12a7.04 7.04 0 0 1 .3-7.43 6.6 6.6 0 0 1 6.4-2.58c3.08.4 5.16 2.97 5.38 5.99a6.5 6.5 0 0 1-.1 1.76c-.04.13 0 .08-.18.1-.44.03-1.08 0-1.52 0h-7.28c-.15 0-.3 0-.46.03.16.72.59 1.35 1.2 1.75 1.2.77 3.43.8 4.55-.12.11-.1.47-.45.6-.46.21-.02 1.25.64 1.49.78.16.08.97.5 1 .64.05.2-.74.96-.9 1.11a6.56 6.56 0 0 1-4.58 1.55h-.02Zm-.25-10.3c-1.4.04-2.54.66-3.05 2.01-.03.08-.12.36-.07.44.05.09 1.24.08 1.44.08h4.39c.15 0 .3-.01.44-.06 0-.72-.63-1.56-1.23-1.95a3.33 3.33 0 0 0-1.92-.52Zm-26.65 9.82a5.53 5.53 0 0 1-.05-1.3c0-3.3.02-6.6 0-9.88-.03-.38-.02-.76.04-1.14.58-.06 1.17-.07 1.75-.04.26 0 1.22-.08 1.37.08.15.16 0 .9.13 1.1.23-.2.45-.4.65-.63a4.6 4.6 0 0 1 5.34-.1c.26.24.5.5.71.78.17.18.15.17.36-.04.36-.46.8-.82 1.32-1.08a5.27 5.27 0 0 1 5.05.36c1.48 1.07 1.91 2.72 1.91 4.47v6.43c0 .15.04.95-.05 1.04-.08.1-1.74.05-2 .05-.17 0-1.03.05-1.13-.05-.11-.1-.06-1.48-.06-1.7v-5.64c0-1.38-.57-2.45-2.1-2.45-1.73 0-2.34 1.3-2.35 2.82v5.92c0 .19.05.93-.07 1.04-.11.11-1.31.06-1.55.06-.48.03-.96.02-1.43-.02-.3-.11-.21-.57-.2-.8.02-1.36 0-2.77 0-4.13v-2.62c-.05-1.5-.9-2.45-2.48-2.25-1.5.19-1.99 1.46-2 2.8-.02 2.15 0 4.3.02 6.46 0 .19-.02.37-.04.55a16 16 0 0 1-1.77.03c-.27 0-1.2.08-1.36-.08l-.01-.04Z" clip-rule="evenodd"/><path fill="#DA324E" fill-rule="evenodd" d="M185.23 15.1c2.79.09 3.42 1.61 3.78 1.69.28.06-.12-1.12.28-1.3.22-.09 1.41-.03 1.76-.04.4-.02.78 0 1.18.03.05.72.06 1.44.02 2.16v9.61c0 2.52-1.1 4.3-3.43 5.3-2.5 1.08-6.26.74-8.19-1.36a4.4 4.4 0 0 1-.75-1.07c.43-.3 1.03-.6 1.5-.87a13 13 0 0 1 1.21-.67c.47.64.72 1 1.47 1.36 1.25.56 3.23.49 4.24-.5.88-.85.84-2 .82-3.13 0-.11 0-.22-.03-.33-.7.72-1.1 1.15-2.09 1.5a6.15 6.15 0 0 1-5.37-.77 6.46 6.46 0 0 1-.63-10 6.2 6.2 0 0 1 4.25-1.6h-.02Zm-2.1 8.77a3.74 3.74 0 0 0 3.54.83c1.88-.5 2.81-2.39 2.33-4.21a3.31 3.31 0 0 0-3.27-2.42h-.1a3.44 3.44 0 0 0-2.5.95 3.49 3.49 0 0 0 0 4.85Zm-9.64-5.19a2.89 2.89 0 0 0-2.87-.41c-1.34.52-1.61 1.75-1.62 3.04v5.95c0 .1 0 .45-.07.51-.08.07-1.4.06-1.63.06-.5.04-.99.02-1.48-.04a9.31 9.31 0 0 1-.04-1.63v-10.7c.81-.04 1.63 0 2.45-.02.82-.02.77.07.75.84-.02.16 0 .31.03.46.18-.13.43-.47.65-.67 1.4-1.21 3.94-1.25 5.5-.32 1.73 1.05 2.23 2.74 2.23 4.65 0 2.15-.02 4.31 0 6.43.01.33 0 .65-.02.98-.59.04-1.17.04-1.76.02-.23 0-1.23.06-1.36-.07-.13-.13-.07-1.27-.07-1.52v-5.53c.04-.8-.1-1.46-.7-2.03ZM156.3 15.1c1.4.04 2.6.4 3.59 1.41.1.12.2.21.33.28.14-.26-.05-.87.08-1.22.04-.09.12-.1.22-.11.3-.05 1.08 0 1.44 0 .22 0 1.34-.06 1.46.06.12.12.06 1.45.06 1.7v10.12c0 .15-.01.3-.05.45-.58.06-1.16.08-1.74.05-.43.03-.87.01-1.3-.04-.27-.13-.05-.99-.16-1.33-.25.17-.56.54-.84.75-1.63 1.25-4.23 1.24-5.97.25a6.5 6.5 0 0 1-3.23-5.03 6.69 6.69 0 0 1 2.8-6.35 5.5 5.5 0 0 1 3.22-.98h.1Zm-1.94 9.06a3.34 3.34 0 0 0 2.46.97 3.48 3.48 0 0 0 3.48-3.49 3.5 3.5 0 0 0-3.48-3.49 3.32 3.32 0 0 0-2.46.98 3.73 3.73 0 0 0 0 5.03Z" clip-rule="evenodd"/><path fill="#fff" fill-rule="evenodd" d="M72.56 15.1a5.8 5.8 0 0 0-4.07 1.72v-5.88a.36.36 0 0 0-.36-.36h-2.58a.36.36 0 0 0-.35.36v16.69a.36.36 0 0 0 .35.36h2.58a.36.36 0 0 0 .36-.36v-1.05a5.79 5.79 0 0 0 4.07 1.71c3.35 0 6.06-2.95 6.06-6.59 0-3.64-2.71-6.59-6.06-6.59ZM72 18.4a3.28 3.28 0 0 1 3.2 3.96 3.3 3.3 0 0 1-4.49 2.38A3.3 3.3 0 0 1 72 18.4Z" clip-rule="evenodd"/><path fill="#F8CB4C" fill-rule="evenodd" d="M99.32 15.15c-2.28 0-4.1 1.3-5.46 2.94-.22.28-.55.72-.87 1.17.78.79 1.58 1.57 2.37 2.35l1.97-1.96a2.84 2.84 0 0 1 3.98 0 2.8 2.8 0 0 1-3.53 4.3l.44.44a6.43 6.43 0 0 0 5.52 1.98 6.44 6.44 0 0 0-4.42-11.23Zm-.55 12.93.55.02h-.55v-.02Z" clip-rule="evenodd"/><path fill="#fff" fill-rule="evenodd" d="M103.73 26.38a6.51 6.51 0 0 1-4.41 1.73c-3.06-.06-4.34-1.08-6.11-3.44a4.93 4.93 0 0 0-.42-.48c-1.14 1.47-2.17 2.61-3.94 3.36a6.5 6.5 0 0 1-9.1-5.93c.16-4.05 3.58-7.1 7.66-6.4 1.75.3 2.96 1.31 4.14 2.56 1.58 1.68 3.31 3.33 4.96 4.96l1.7 1.67a6.43 6.43 0 0 0 5.51 1.97h.01Zm-15.35-6.63c-2.9-2.75-6.61 1.2-4.1 3.86a2.84 2.84 0 0 0 4 0l1.99-1.98-1.9-1.88ZM72.08 37.2l-1.32.74c-.21-.33-.5-.6-.83-.8a2.37 2.37 0 0 0-1.17-.26 1.86 1.86 0 0 0-1.36.5 2.01 2.01 0 0 0 0 2.69 1.87 1.87 0 0 0 1.36.5 2.22 2.22 0 0 0 1.99-1.05l1.31.74c-.64 1.2-1.74 1.8-3.28 1.8a3.68 3.68 0 0 1-2.57-.91 3.43 3.43 0 0 1 0-4.87c.7-.62 1.62-.95 2.56-.92 1.53 0 2.63.6 3.3 1.8v.04Zm10.94-.15L82 39.51h2.24l-.97-2.46h-.26Zm-1.08-1.51h2.46l2.7 6.38h-1.78l-.4-.94h-3.53l-.39.94h-1.83l2.77-6.38Zm19.07.86-.81 1.25a4.12 4.12 0 0 0-2.51-.75c-.89 0-1.33.17-1.33.52a.25.25 0 0 0 .16.25c.16.05.33.09.5.1l1.85.22c1.52.18 2.27.84 2.27 1.97a1.73 1.73 0 0 1-.93 1.58 4.8 4.8 0 0 1-2.43.54A5.13 5.13 0 0 1 94.43 41l.8-1.32a4.6 4.6 0 0 0 2.7.92c.4.02.77-.04 1.14-.15.3-.1.43-.26.43-.47a.36.36 0 0 0-.08-.26.66.66 0 0 0-.36-.1l-2.19-.26a3.02 3.02 0 0 1-1.6-.58 1.65 1.65 0 0 1-.55-1.35 1.68 1.68 0 0 1 .84-1.52c.65-.37 1.4-.55 2.15-.52a5.24 5.24 0 0 1 3.31 1.01Zm7.83-.86h1.69v6.38h-1.7v-6.38Zm9.47 0h1.54l3.4 3.84v-3.84h1.68v6.38h-1.55l-3.41-3.86v3.86h-1.67v-6.38Zm16.59 1.82a2.04 2.04 0 0 0 0 2.76 1.9 1.9 0 0 0 3.2-1.38 1.91 1.91 0 0 0-2.23-1.88c-.37.07-.7.24-.97.5Zm3.87-1.03a3.24 3.24 0 0 1 0 4.8 3.83 3.83 0 0 1-5.04 0 3.22 3.22 0 0 1-.79-3.71c.19-.41.45-.78.79-1.09a3.83 3.83 0 0 1 5.04 0Z" clip-rule="evenodd"/><path fill="#434693" fill-rule="evenodd" d="m54.79 15.49 3.94-4.31H53.5c-2.56 0-4.46 1.21-6.51 2.55l7.81 1.76Z" clip-rule="evenodd"/><path fill="#AB1F36" fill-rule="evenodd" d="m49.47 21.32 3.66-4.01-6.83-1.53 3.17 5.54Z" clip-rule="evenodd"/><path fill="#C6A23D" fill-rule="evenodd" d="m43.8 15.75-9.15 5.67 3.4 7.16.23.06a10.37 10.37 0 0 0 7.71-3.52L47.93 23l-4.14-7.25Z" clip-rule="evenodd"/><path fill="#F8CB4C" fill-rule="evenodd" d="m18.25 11.26 19.8 17.33-9.95.02a10.58 10.58 0 0 1-8.06-3.48l-5.96-6.43 4.17-7.44Z" clip-rule="evenodd"/><path fill="#DA324E" fill-rule="evenodd" d="m16.52 9.75.06.05-4.05 7.23-4.86-5.24 8.85-2.04Z" clip-rule="evenodd"/><path fill="#5457B8" fill-rule="evenodd" d="M0 3.52h5.3c3.18 0 5.7 1.41 8.06 3.48l1.18 1.04L6 10 0 3.52Z" clip-rule="evenodd"/><g clip-path="url(#a)"><path fill="#70A818" d="M33.04 21.47s-14.3-1.05-14.48-3.53c-.15-2.23 4.24-1.7 4.24-1.7s-1.86-.63-3.52-1.59c-1.52-.88-2.86-2.02-2.44-3.19.65-1.82 4.24-.37 4.4-.3-.2-.19-6.37-5.69-4.06-7.1 2.77-1.69 6.56 4.05 6.56 4.05s-.1-4.52 1.68-4.4c2.25.16 3.12 7.5 3.12 7.5s.64-3.1 2.61-2.17c.68.32 1.12 1.56 1.4 3.14.67 3.7.5 9.3.5 9.3Z"/><path fill="#517715" d="m19.56 6.73 13.48 14.74.03-.82L19.56 6.73Z"/><path fill="#517715" d="m20.63 13.12 6.42 1.66-1.09-6.51.52 5.86-5.85-1.01Zm3.49 5.08c.1.08 7.31 1.22 7.31 1.22l-.65-6.56.1 5.9-6.76-.56Z"/><path fill="#70A818" d="M51.8 11.86c1 2.39-5.7 5.1-5.7 5.1s4.36-.78 4.32 1.45c-.02 1.33-4.09 2.48-7.88 3.26-3.3.67-6.39 1.07-6.39 1.07s-.97-11.33 1.23-12.51c.6-.33 1.1-.25 1.5.01.84.57 1.22 2 1.22 2s.48-7.37 2.72-7.65c1.76-.22 1.9 4.3 1.9 4.3s3.49-5.94 6.35-4.4c2.38 1.28-3.52 7.14-3.68 7.3.13-.06 3.66-1.72 4.41.07Z"/><path fill="#517715" d="M48.83 7.28 36.15 22.74l-.06-.82L48.83 7.28Z"/><path fill="#517715" d="m48.1 13.71-6.32 2.02.74-6.56-.2 5.88 5.78-1.34Zm-3.22 5.27c-.1.1-7.23 1.63-7.23 1.63l.3-6.59.2 5.9 6.73-.94Z"/><path fill="#AA001D" d="M34.8 22.3a3.18 3.18 0 0 1-6.33.72 3.18 3.18 0 0 1 4.9-3c.77.49 1.31 1.3 1.43 2.28Z"/><path fill="#E21047" d="M33.62 20.93a3.18 3.18 0 0 1-4.9 3A3.18 3.18 0 0 1 33.38 20c.12.3.2.6.24.93Z"/><path fill="#FFEBDB" d="M31.61 20.51c.02.17.25.29.5.26.26-.03.45-.2.43-.37-.02-.17-.25-.28-.5-.26-.26.03-.45.2-.43.37Z"/><path fill="#453330" d="M30.4 21.11a.3.3 0 0 1-.26.32.29.29 0 1 1-.06-.57c.15-.02.3.1.31.25Z"/><path fill="#C6062F" d="M39.55 21.54a3.18 3.18 0 0 1-6.33.72 3.18 3.18 0 0 1 4.9-3.02c.77.5 1.31 1.32 1.43 2.3Z"/><path fill="#E21047" d="M38.38 20.16a3.18 3.18 0 0 1-4.91 3.01 3.18 3.18 0 0 1 4.66-3.93c.12.29.2.6.25.92Z"/><path fill="#FFEBDB" d="M36.36 19.74c.02.18.25.3.5.26.25-.02.44-.19.43-.36-.02-.17-.25-.3-.5-.26-.26.03-.45.2-.43.36Z"/><path fill="#453330" d="M35.14 20.35a.29.29 0 0 1-.57.06c-.02-.15.1-.3.25-.31.16-.02.3.1.32.25Z"/><path fill="#B7042B" d="M39.55 25.06a3.18 3.18 0 0 1-6.33.72 3.18 3.18 0 0 1 4.9-3.01c.77.5 1.31 1.31 1.43 2.29Z"/><path fill="#E21047" d="M38.38 23.68a3.18 3.18 0 0 1-4.91 3.02 3.18 3.18 0 0 1 4.66-3.93c.12.28.2.59.25.91Z"/><path fill="#FFEBDB" d="M36.36 23.27c.02.17.25.29.5.26.25-.03.44-.2.43-.37-.02-.17-.25-.29-.5-.26-.26.03-.45.2-.43.37Z"/><path fill="#453330" d="M35.14 23.87a.3.3 0 0 1-.25.32.29.29 0 1 1-.06-.57c.15-.02.3.1.31.25Z"/><path fill="#527712" d="M33.04 21.47s-14.3-1.05-14.48-3.53c-.15-2.23 4.24-1.7 4.24-1.7s-1.86-.63-3.52-1.59c4.5 1.16 10 1.4 13.27-2.47.67 3.7.5 9.3.5 9.3Zm9.5.2c-3.3.67-6.39 1.07-6.39 1.07s-.97-11.33 1.22-12.51c.61-.33 1.1-.25 1.5.01.18 3.6 1.03 8.34 3.67 11.43Z" opacity=".21" style="mix-blend-mode:multiply"/></g><defs><clipPath id="a"><path fill="#fff" d="M0 0h35.39v26.97H0z" transform="rotate(-6.52 43.2 -137.25)"/></clipPath></defs></svg>