<?xml version="1.0" encoding="UTF-8"?>
<svg xmlns="http://www.w3.org/2000/svg" width="30" height="30" viewBox="0 0 30 30" fill="none">
  <rect width="30" height="30" rx="15" fill="black"></rect>
  <path d="M7.75 5H22.25V23.2H7.75V5ZM11.25 20.4V8.3H14.85C16.15 8.3 17.05 8.6 17.75 9.1C18.4501 9.7 18.75 10.5 18.75 11.6C18.75 12.2 18.65 12.7 18.35 13.1C18.05 13.5 17.75 13.9 17.15 14.1C17.75 14.2 18.25 14.6 18.55 15.1C18.85 15.6 19.05 16.2 19.05 16.9C19.05 18 18.75 18.9 18.05 19.5C17.35 20.1 16.4501 20.4 15.25 20.4H11.25ZM13.4501 15.1V18.5H15.15C15.65 18.5 16.05 18.4 16.25 18.1C16.4501 17.8 16.65 17.4 16.65 16.9C16.65 16.3 16.55 15.9 16.35 15.6C16.15 15.3 15.75 15.1 15.35 15.1H13.4501ZM13.4501 13.4H14.75C15.25 13.4 15.65 13.2 15.85 13C16.15 12.7 16.25 12.4 16.25 11.8C16.25 11.2 16.15 10.8 15.85 10.6C15.55 10.3 15.15 10.2 14.65 10.2H13.4501V13.4Z" fill="#F0CA3F"></path>
  <path d="M18.55 15.0998C18.25 14.5998 17.75 14.1998 17.15 14.0998C17.75 13.8998 18.05 13.4998 18.35 13.0998C18.65 12.6998 18.75 12.1998 18.75 11.5998C18.75 10.4998 18.4501 9.69977 17.75 9.09979C17.05 8.59979 16.15 8.2998 14.85 8.2998H11.25V20.3998H15.25C16.4501 20.3998 17.35 20.0998 18.05 19.4998C18.75 18.8998 19.05 17.9998 19.05 16.8998C19.05 16.1998 18.85 15.5998 18.55 15.0998ZM13.4501 10.1998H14.65C15.15 10.1998 15.55 10.2998 15.85 10.5998C16.15 10.7998 16.25 11.1998 16.25 11.7998C16.25 12.3998 16.15 12.6998 15.85 12.9998C15.65 13.1998 15.25 13.3998 14.75 13.3998H13.4501V10.1998ZM16.25 18.0998C16.05 18.3998 15.65 18.4998 15.15 18.4998H13.4501V15.0998H15.35C15.75 15.0998 16.15 15.2998 16.35 15.5998C16.55 15.8998 16.65 16.2998 16.65 16.8998C16.65 17.3998 16.4501 17.7998 16.25 18.0998Z" fill="white"></path>
</svg>
