<?xml version="1.0" encoding="UTF-8"?>
<svg xmlns="http://www.w3.org/2000/svg" width="31" height="31" viewBox="0 0 31 31" fill="none">
  <path d="M0.5 15.5C0.5 7.21573 7.21573 0.5 15.5 0.5V0.5C23.7843 0.5 30.5 7.21573 30.5 15.5V15.5C30.5 23.7843 23.7843 30.5 15.5 30.5V30.5C7.21573 30.5 0.5 23.7843 0.5 15.5V15.5Z" fill="black"></path>
  <path d="M19.4603 11.42H11.7803C11.7803 11.42 13.1003 12.02 13.3403 13.22H14.4203V20.18H16.2203V13.22H17.1803C17.7803 12.14 19.4603 11.42 19.4603 11.42Z" fill="#738ACF"></path>
  <path d="M13.7001 10.2201L15.5001 8.90007L17.1801 10.2201L16.5801 8.18007L18.2601 6.86007H16.1001L15.5001 4.82007L14.7801 6.86007H12.6201L14.4201 8.18007L13.7001 10.2201Z" fill="#738ACF"></path>
  <path d="M12.1406 15.26C12.6206 15.14 13.1006 14.54 13.1006 13.7C13.1006 12.98 12.7406 12.26 12.0206 11.78C11.4206 11.42 11.3006 11.18 9.50059 11.3C7.82059 11.42 7.10059 12.62 7.10059 12.62V19.22C7.10059 19.22 8.42059 20.06 9.50059 20.06C11.9006 20.06 12.9806 19.46 13.4606 18.62C14.0606 17.54 13.5806 16.34 13.3406 15.98C13.1006 15.62 12.7406 15.38 12.1406 15.26ZM9.02059 13.7C9.02059 13.46 9.14059 13.34 9.38059 13.22C9.74059 12.98 10.3406 12.98 10.7006 13.22C10.9406 13.34 10.9406 13.7 10.9406 13.94C10.9406 14.54 10.2206 14.66 9.50059 14.66H9.02059C9.02059 14.66 9.02059 13.94 9.02059 13.7ZM10.9406 18.38C10.7006 18.5 10.1006 18.5 9.38059 18.38C9.26059 18.38 9.02059 18.26 9.02059 18.26V16.1H9.98059C10.3406 16.1 10.8206 16.22 11.0606 16.46C11.4206 16.82 11.7806 18.14 10.9406 18.38Z" fill="#738ACF"></path>
  <path d="M19.3405 9.97996L20.1805 9.49996L21.0205 10.22L20.7805 9.13996L21.7405 8.65996L20.6605 8.53996L20.4205 7.45996L20.0605 8.41996L18.9805 8.29996L19.7005 9.01996L19.3405 9.97996Z" fill="#738ACF"></path>
  <path d="M7.22 11.66L7.58 11.06L8.18 11.18L7.7 10.7L8.06 10.22L7.46 10.46L7.1 9.97998V10.58L6.5 10.82L7.1 10.94L7.22 11.66Z" fill="#738ACF"></path>
  <path d="M9.98063 10.22L10.7006 9.49996L11.6606 9.97996L11.1806 9.01996L11.9006 8.29996L10.9406 8.41996L10.4606 7.45996L10.2206 8.53996L9.14062 8.65996L10.1006 9.13996L9.98063 10.22Z" fill="#738ACF"></path>
  <path d="M21.1403 16.7H22.2203V18.38C21.8603 18.62 21.6203 18.62 21.0203 18.62C20.4203 18.62 19.8203 18.38 19.3403 17.9C18.9803 17.42 18.7403 16.7 18.7403 15.74C18.7403 14.9 19.1003 14.06 19.4603 13.7C20.0603 13.22 20.5403 12.98 21.0203 12.98C21.7403 12.98 22.4603 13.22 22.9403 13.82L23.7803 12.26C22.9403 11.78 22.4603 11.3 21.3803 11.3C19.9403 11.3 18.8603 11.66 18.0203 12.5C17.1803 13.22 16.8203 14.3 16.8203 15.74C16.8203 17.18 17.1803 18.26 17.9003 18.98C18.6203 19.7 19.5803 20.3 20.9003 20.3C21.3803 20.3 23.0603 20.18 24.1403 19.46V15.14H21.1403V16.7Z" fill="#738ACF"></path>
  <path d="M23.6605 7.33998C21.5005 5.17998 18.6205 3.97998 15.5005 3.97998C12.3805 3.97998 9.50047 5.17998 7.34047 7.33998C5.18047 9.49998 3.98047 12.38 3.98047 15.5C3.98047 18.62 5.18047 21.5 7.34047 23.66C9.50047 25.82 12.3805 27.02 15.5005 27.02C18.6205 27.02 21.5005 25.82 23.6605 23.66C25.8205 21.5 27.0205 18.62 27.0205 15.5C27.0205 12.38 25.8205 9.49998 23.6605 7.33998ZM8.66047 24.26C8.90047 24.26 9.14047 24.26 9.38047 24.26C10.9405 24.38 12.7405 25.22 14.3005 26.54C12.2605 26.3 10.2205 25.46 8.66047 24.26ZM17.9005 26.3C17.3005 26.06 16.7005 25.7 16.1005 25.22C14.4205 24.14 12.2605 22.82 10.4605 22.34C12.0205 22.34 13.7005 22.94 15.3805 23.54C17.1805 24.14 19.2205 24.86 21.1405 24.98C20.0605 25.58 18.9805 26.06 17.9005 26.3ZM22.5805 24.02C22.1005 24.02 21.6205 24.02 21.2605 24.02C19.4605 23.9 17.6605 23.3 15.8605 22.7C14.7805 22.34 13.7005 21.98 12.6205 21.74C13.5805 21.86 15.2605 21.98 15.7405 22.1C18.3805 22.7 20.7805 22.58 21.2605 22.58C22.3405 22.58 23.5405 22.34 24.6205 21.98C23.9005 22.7 23.3005 23.42 22.5805 24.02ZM15.1405 21.62C13.7005 21.38 11.9005 21.14 10.1005 21.26C8.90047 21.38 7.70047 21.62 6.62047 22.1C5.18047 20.18 4.46047 17.9 4.46047 15.5C4.46047 9.37998 9.38047 4.45998 15.5005 4.45998C17.5405 4.45998 19.5805 5.05998 21.3805 6.13998C26.5405 9.37998 28.1005 16.22 24.8605 21.38C21.6205 22.82 17.6605 21.86 15.1405 21.62Z" fill="#738ACF"></path>
  <path d="M23.9003 9.97998L23.4203 10.46L22.8203 10.22L23.1803 10.7L22.8203 11.18L23.4203 11.06L23.7803 11.66V10.94L24.3803 10.82L23.7803 10.58L23.9003 9.97998Z" fill="#738ACF"></path>
</svg>
