<?xml version="1.0" encoding="UTF-8"?>
<svg xmlns="http://www.w3.org/2000/svg" width="31" height="31" viewBox="0 0 31 31" fill="none">
  <path d="M0.5 15.5C0.5 7.21573 7.21573 0.5 15.5 0.5V0.5C23.7843 0.5 30.5 7.21573 30.5 15.5V15.5C30.5 23.7843 23.7843 30.5 15.5 30.5V30.5C7.21573 30.5 0.5 23.7843 0.5 15.5V15.5Z" fill="black"></path>
  <path d="M15.6863 23.924C15.6457 23.924 15.6153 23.924 15.5342 23.924H15.453V23.5285H15.5646C15.6457 23.5183 15.737 23.5285 15.808 23.5589C15.8689 23.5893 15.9094 23.6502 15.9094 23.7212C15.9094 23.8327 15.8182 23.9139 15.7167 23.9139C15.7066 23.9139 15.6965 23.9139 15.6863 23.924ZM16.1528 23.7313C16.1528 23.6096 16.1021 23.4981 16.0109 23.4271C15.8993 23.3358 15.7877 23.3358 15.6255 23.3358H15.2198V24.5934H15.453V24.1269H15.666L15.9196 24.5934H16.1833L15.8993 24.0863C16.0514 24.0356 16.1528 23.8936 16.1528 23.7313ZM15.6457 24.9484C15.1082 24.9484 14.6721 24.5123 14.6721 23.9747C14.6721 23.4372 15.1082 23.0011 15.6457 23.0011C16.1833 23.0011 16.6194 23.4372 16.6194 23.9747C16.6194 24.5123 16.1833 24.9484 15.6457 24.9484ZM15.6457 22.7577C14.9764 22.7577 14.4287 23.3054 14.4287 23.9747C14.4287 24.6441 14.9764 25.1918 15.6457 25.1918C16.3151 25.1918 16.8628 24.6441 16.8628 23.9747C16.8628 23.3054 16.3151 22.7577 15.6457 22.7577Z" fill="#A1A1A1"></path>
  <path d="M9.07129 6.83475C14.9131 3.72117 22.4485 7.00716 23.0165 14.9382C12.195 15.7901 10.8867 10.9118 9.07129 6.83475Z" fill="url(#paint0_linear)"></path>
  <path d="M9.07129 23.8529C14.9131 26.9665 22.4485 23.6805 23.0165 15.7394C12.195 14.8976 10.8867 19.7759 9.07129 23.8529Z" fill="url(#paint1_linear)"></path>
  <path d="M22.0898 9.31951C19.3515 5.65827 14.3109 4.61365 10.1426 6.84488C11.7653 10.496 12.9823 14.7962 20.9945 15.0396C21.7652 13.6501 22.1608 12.0984 22.1608 10.5061C22.1608 10.1106 22.1405 9.71505 22.0898 9.31951ZM12.1101 19.8367C12.3434 19.857 12.5766 19.8671 12.82 19.8671C15.9539 19.8671 18.8849 18.2951 20.6091 15.6887C15.7815 15.9219 13.5198 17.6663 12.1101 19.8367Z" fill="url(#paint2_radial)"></path>
  <defs>
    <linearGradient id="paint0_linear" x1="15.9521" y1="11.7432" x2="14.7817" y2="22.6661" gradientUnits="userSpaceOnUse">
      <stop stop-color="#E1E2E3"></stop>
      <stop offset="1" stop-color="#A5A5A5"></stop>
    </linearGradient>
    <linearGradient id="paint1_linear" x1="16.8999" y1="11.8447" x2="15.7296" y2="22.7675" gradientUnits="userSpaceOnUse">
      <stop stop-color="#E1E2E3"></stop>
      <stop offset="1" stop-color="#A5A5A5"></stop>
    </linearGradient>
    <radialGradient id="paint2_radial" cx="0" cy="0" r="1" gradientUnits="userSpaceOnUse" gradientTransform="translate(13.7734 13.0882) scale(11.1561)">
      <stop stop-color="#C0C0C0"></stop>
      <stop offset="0.22" stop-color="#BBBBBB"></stop>
      <stop offset="0.46" stop-color="#ADADAD"></stop>
      <stop offset="0.72" stop-color="#979797"></stop>
      <stop offset="0.99" stop-color="#797979"></stop>
      <stop offset="1" stop-color="#777777"></stop>
    </radialGradient>
  </defs>
</svg>
