<svg xmlns="http://www.w3.org/2000/svg" fill="none" viewBox="0 0 104 48"><path fill="#FFCD34" d="M25.65 43.32c-.2-.44-3.37-1.08-4.94-.37-1.58.7-3.52.39-3.33.83.2.45 2.46 1.49 4.03.78 1.58-.7 4.44-.8 4.24-1.24zM37.97.96c-1.33 1-.07 2.09 2.55 1.92 3.1-.2 8.07-1.76 12-1.7a9.22 9.22 0 0 1 6.74 2.74c1.24 1.34-10.85 1.48-20 5.58-.46.2 1.91 1.07.9 2.06-1.33 1.32-5.83 3.05-6.06 3.63-.41 1.06-26.12 2.17-22.88 4.75 3.26 2.62 32.26-.81 32.98.82.72 1.64-20.06 1.95-19.01 4.33 1.04 2.39 10.89-.81 14.49-1.47 4.6-.83 6.26 4.1-.06 4.16-.43 0-5.42-1.68-5.95-1.68-4.66.02-8.07 1.38-9.73 3.1-4.12 4.17 18.02-.38 24.29.75 3.42.65 6.91-1.54 7.75-1.4.43.08 2 1.2-1.3 1.9-4.03.86-15.75 1.03-19.8 2.62-5.99 2.34-4.95 4.19-4.32 4.27.82.11-5.36 1.01-4.42 1.68.92.65 2.49 1.32 5.84 1.57 8.01.67 27.66 1.17 27.9 1.73.23.52-.4 3.04-4.65 1.95-1.77-.45-6.29-1.81-9.07-1.58-3.83.33-7.03 1.28-6.6 2.27.76 1.7 27.83 6.42 32.64 6.68 7.66.41 32.61-3.57 30.66-14.75-.08-.48 13.14-35.93-26.32-39.4-15.86 3.74-22.36.02-26.42.9-1.81.4-4.97-.59-6-.29A21 21 0 0 0 37.98.96zm-.12-6.95c-.27-.61-1-.9-1.61-.61-.62.27-.9 1-.63 1.62.27.62 1 .9 1.61.62.62-.28.9-1 .63-1.63zM14.48 28.88a.97.97 0 0 0-1.29-.5.98.98 0 1 0 1.29.5zm13.6 6.5a.73.73 0 0 0-.97-.37.74.74 0 0 0-.38.98c.16.37.6.53.97.37.37-.17.54-.6.38-.98zM68.4 55.11a.97.97 0 0 0-1.29-.5.99.99 0 0 0-.5 1.3.98.98 0 1 0 1.79-.8zM27.55 47c4.07-.24 5.94.36 8.12-1.3 2.18-1.66-3.27.2-7.34.43-4.07.24-5.08-1.03-7.39.43-2.3 1.47 2.54.67 6.61.44zM47.06 4.2c-.2-.44-1.63-.23-3.2.47-1.57.7-2.7 1.64-2.5 2.09.2.44 1.63.23 3.2-.47 1.58-.7 2.7-1.64 2.5-2.09zm24.9 17.6c23.25-1.96-.93 1.34-2.5 2.05-1.57.7-6.02-.31-6.21-.74-.19-.43 3.96-.12 5.53-.83 1.57-.7-20.07 1.46 3.18-.49zm19.71 13.02c2.69 2.03-4.77 2.75-10.62 4.15-5.85 1.4-10.95 5.2-12.32 1.26-1.36-3.93 4.8-2.09 9.88-4.74 5.08-2.66 10.37-2.7 13.06-.67zm-17.29-4.48c1.23.93-2.22 1.32-4.94 2.01-2.72.7-5.11 2.5-5.72.67-.6-1.83 2.24-1 4.6-2.28 2.38-1.27 4.83-1.33 6.06-.4zm-19.81-6.18c.75.57-2.35 1.43-2.93 2.19-.57.76-3.38.38-4.14-.2-.75-.56.84-1.1 1.42-1.86.57-.76 4.9-.7 5.65-.13zm8.08-8.33a1 1 0 0 1 .19 1.38.98.98 0 0 1-1.38.2.98.98 0 0 1-.18-1.38.98.98 0 0 1 1.37-.2zM67.14 18c.43.33.51.94.18 1.38a.98.98 0 0 1-1.37.2.98.98 0 0 1-.18-1.38.98.98 0 0 1 1.37-.2zm15.4 35.46c-1.24-.93-3.7-.88-6.06.4-2.37 1.27-5.22.45-4.61 2.28.6 1.83 3 .02 5.71-.67 2.72-.7 6.18-1.08 4.95-2.01zM33.9 6.7c-7.81-.5-7.34-.76-9.01-.68-1.67.09-3.34-.52-3.38.63-.04 1.16 2.15 1.9 3.71 2.21 1.57.31 16.49-1.66 8.68-2.16z"/></svg>