<?xml version="1.0" encoding="UTF-8" standalone="yes"?><svg xmlns="http://www.w3.org/2000/svg" width="254" height="282" fill="none" viewBox="0 0 254 282"><path fill="#244091" d="M76.6476 65.8921C75.4029 66.616 66.8728 62.3215 64.4427 57.7217C62.0127 53.122 56.9132 50.3275 58.158 49.6035C59.4027 48.8796 66.5203 50.5004 68.9504 55.1001C71.3804 59.6999 77.8924 65.1681 76.6476 65.8921ZM30.6268 191.35C29.2939 186.474 34.1465 186.145 39.9578 191.35C46.8649 197.536 55.6893 210.444 64.9647 217.513C74.0093 224.406 82.3873 223.818 85.5649 223.234C90.8354 222.256 62.8396 199.72 48.7145 172.983C48.0028 171.636 55.067 173.882 54.465 169.639C53.6619 163.978 46.2159 151.515 46.715 149.696C47.6239 146.355 -10.4578 96.495 1.66502 96.1733C13.9062 95.7829 75.5766 157.36 80.1401 154.706C84.7035 152.052 36.7286 113.166 43.3796 109.298C50.0305 105.43 67.3823 131.267 74.6107 139.476C83.9004 149.922 96.5104 140.996 81.8307 129.273C80.8239 128.459 66.2009 123.406 64.9647 122.433C54.1201 113.807 48.5596 104.243 47.711 97.0587C45.4688 79.3615 89.1302 131.031 105.765 139.803C114.912 144.503 119.196 156.22 121.421 157.418C122.532 158.014 128.204 158.176 121.716 150.426C113.826 140.945 86.7598 119.009 80.0984 107.734C70.2456 91.0604 75.9441 88.4726 77.5551 89.4218C79.6723 90.6648 66.8264 77.132 70.2059 77.2468C73.4929 77.353 78.3384 78.5844 86.6103 84.1554C106.511 97.2253 153.265 132.077 154.833 131.165C156.278 130.325 159.251 123.017 147.406 117.896C142.465 115.722 129.529 110.738 123.432 105.078C115.064 97.2405 109.276 89.0694 112.041 87.4618C116.808 84.6892 188.368 122.957 200.043 131.143C218.673 144.205 289.309 260.673 264.991 284.241C263.977 285.215 214.661 287.598 117.044 291.388C113.863 291.512 110.774 290.11 108.792 287.62C80.2185 251.722 62.1094 229.14 54.465 219.875C50.9287 215.589 41.8273 212.19 39.9578 209.583C34.6335 202.161 31.4803 194.589 30.6268 191.35ZM152.506 4.63075C151.47 5.23307 150.166 4.84047 149.591 3.75387C149.017 2.66726 149.392 1.29816 150.427 0.695846C151.463 0.0935338 152.768 0.486129 153.342 1.57273C153.916 2.65933 153.542 4.02844 152.506 4.63075ZM161.322 80.0921C160.287 80.6944 158.982 80.3018 158.408 79.2152C157.834 78.1286 158.208 76.7595 159.244 76.1572C160.279 75.5549 161.584 75.9475 162.158 77.0341C162.732 78.1207 162.358 79.4898 161.322 80.0921ZM18.0747 207.985C16.3487 208.989 14.1739 208.335 13.2171 206.524C12.2603 204.713 12.8839 202.431 14.61 201.427C16.336 200.423 18.5109 201.077 19.4677 202.888C20.4244 204.699 19.8008 206.981 18.0747 207.985ZM25.0626 80.4657C23.6817 81.2688 21.9418 80.7453 21.1764 79.2965C20.411 77.8477 20.9099 76.0222 22.2907 75.2191C23.6715 74.416 25.4114 74.9395 26.1769 76.3883C26.9423 77.8371 26.4434 79.6626 25.0626 80.4657ZM68.2991 89.6128C67.2635 90.2151 65.9586 89.8225 65.3846 88.7359C64.8105 87.6493 65.1847 86.2801 66.2203 85.6778C67.256 85.0755 68.5608 85.4681 69.1349 86.5547C69.7089 87.6413 69.3348 89.0105 68.2991 89.6128ZM197.316 115.742C195.935 116.545 194.195 116.022 193.43 114.573C192.664 113.124 193.163 111.299 194.544 110.496C195.925 109.693 197.665 110.216 198.43 111.665C199.196 113.114 198.697 114.939 197.316 115.742ZM87.5582 60.4868C96.6386 68.5348 102.079 70.5152 104.241 78.5434C106.402 86.5717 96.9229 72.0576 87.8425 64.0096C78.762 55.9616 74.1506 57.1982 71.3576 49.3991C68.5645 41.6001 78.4777 52.4389 87.5582 60.4868ZM57.6009 200.129C56.3561 200.853 53.3771 197.711 50.947 193.111C48.5169 188.512 47.5561 184.196 48.8008 183.472C50.0456 182.748 53.0246 185.89 55.4547 190.49C57.8848 195.089 58.8456 199.405 57.6009 200.129ZM146.81 203.137C197.66 250.546 147.025 198.149 144.601 193.56C142.177 188.971 129.992 183.254 128.788 183.955C127.584 184.655 137.816 191.507 140.24 196.096C142.664 200.685 95.9605 155.727 146.81 203.137ZM215.839 207.694C225.706 207.694 209.558 192.266 198.373 178.124C187.188 163.982 181.988 145.395 171.84 152.441C161.692 159.487 179.355 166.33 186.523 182.102C193.691 197.873 205.971 207.694 215.839 207.694ZM167.563 186.825C172.085 186.825 164.685 179.544 159.559 172.87C154.433 166.196 152.049 157.425 147.398 160.75C142.748 164.075 150.843 167.305 154.128 174.747C157.413 182.19 163.041 186.825 167.563 186.825ZM110.369 165.449C113.131 165.449 107.4 157.672 107.4 154.773C107.4 151.875 100.158 147.648 97.3948 147.648C94.6319 147.648 97.3948 151.875 97.3948 154.773C97.3948 157.672 107.606 165.449 110.369 165.449ZM114.547 200.514C116.125 200.514 117.405 199.171 117.405 197.514C117.405 195.858 116.125 194.515 114.547 194.515C112.968 194.515 111.688 195.858 111.688 197.514C111.688 199.171 112.968 200.514 114.547 200.514ZM128.84 203.513C130.419 203.513 131.698 202.17 131.698 200.514C131.698 198.857 130.419 197.514 128.84 197.514C127.261 197.514 125.981 198.857 125.981 200.514C125.981 202.17 127.261 203.513 128.84 203.513ZM227.394 145.69C222.871 145.69 217.243 141.055 213.958 133.613C210.673 126.17 202.578 122.94 207.229 119.615C211.88 116.29 214.263 125.062 219.389 131.735C224.515 138.409 231.916 145.69 227.394 145.69ZM213.95 73.7949C234.381 107.774 183.869 51.707 180.584 44.2642C177.299 36.8214 173.992 25.4617 178.642 22.1365C183.293 18.8114 185.677 27.5829 190.803 34.2565C195.929 40.9302 193.519 39.8155 213.95 73.7949ZM31.272 169.944C12.1603 156.815 12.7691 158.333 9.0271 155.058C5.28508 151.783 0.321462 150.202 2.26086 147.328C4.20027 144.455 10.6262 146.641 14.8248 148.773C19.0234 150.905 50.3838 183.073 31.272 169.944Z" style=""/></svg>