<svg xmlns="http://www.w3.org/2000/svg" fill="none" viewBox="0 0 28 28"><path fill="#000" d="m17.64 9.86-.44.44-3.2 3.2-3.2-3.2-.44-.44a2.27 2.27 0 0 1 3.2-3.2l.44.44.44-.44a2.26 2.26 0 1 1 3.2 3.2zm-10.98.5a2.26 2.26 0 0 0 0 3.2l.44.44-.44.44a2.26 2.26 0 0 0 3.2 3.2l.44-.44 3.2-3.2-3.2-3.2-.44-.44a2.26 2.26 0 0 0-3.2 0zm3.7 10.98c.89.88 2.32.88 3.2 0l.44-.44.44.44a2.26 2.26 0 0 0 3.2-3.2l-.44-.44-3.2-3.2-3.2 3.2-.44.44a2.26 2.26 0 0 0 0 3.2zm10.98-3.7c.88-.89.88-2.32 0-3.2L20.9 14l.44-.44a2.26 2.26 0 0 0-3.2-3.2l-.44.44-3.2 3.2 3.2 3.2.44.44c.88.88 2.31.88 3.2 0z"/></svg>