<svg xmlns="http://www.w3.org/2000/svg" fill="none" viewBox="0 0 24 24"><path fill="#000" fill-rule="evenodd" d="m18.94 12-.54.67a.29.29 0 0 1-.18.1h-.03a.27.27 0 0 1-.18-.07L12 7.53 6 12.7a.3.3 0 0 1-.22.07.28.28 0 0 1-.18-.1L5.06 12a.3.3 0 0 1 .04-.4l6.24-5.38c.37-.3.96-.3 1.32 0l6.24 5.37c.12.1.13.29.04.4Z" clip-rule="evenodd"/><path fill="#000" fill-rule="evenodd" d="M17.01 13.13v4.3c0 .31-.25.57-.55.57h-3.34v-3.44H10.9V18H7.56a.57.57 0 0 1-.55-.57v-4.36l5-4.25 5 4.25v.06Z" clip-rule="evenodd"/></svg>