<svg xmlns="http://www.w3.org/2000/svg" fill="none" viewBox="0 0 24 24"><path fill="#000" d="M18.124 9.139 14.19 5.835A3.572 3.572 0 0 0 11.889 5a3.58 3.58 0 0 0-2.751 1.277l-.067.081-2.105 2.506-1.131 1.347a3.543 3.543 0 0 0-.766 1.592 3.649 3.649 0 0 0-.024 1.28c.13.825.547 1.606 1.231 2.183l3.934 3.303c.668.56 1.487.835 2.301.835a3.575 3.575 0 0 0 2.751-1.277l3.303-3.934a3.6 3.6 0 0 0-.441-5.054Zm-8.67 4.596a1.85 1.85 0 0 1-3.178-1.775 1.859 1.859 0 0 1 1.291-1.208 1.85 1.85 0 0 1 1.231.106 1.85 1.85 0 0 1 .655 2.878Zm.85-6.776c.367-.437.892-.66 1.42-.66a1.851 1.851 0 0 1 1.417 3.045 1.85 1.85 0 0 1-2.61.228 1.857 1.857 0 0 1-.226-2.613Zm.45 4.028c.367-.437.892-.66 1.42-.66a1.85 1.85 0 1 1-.003 3.705 1.851 1.851 0 0 1-1.417-3.045Zm3.395 6.693a1.85 1.85 0 0 1-2.61.229 1.851 1.851 0 0 1-.227-2.611 1.851 1.851 0 1 1 2.837 2.382Zm3.689-4.395a1.85 1.85 0 0 1-2.61.23 1.85 1.85 0 0 1 1.193-3.272 1.85 1.85 0 0 1 1.417 3.042Z"/></svg>