<svg xmlns="http://www.w3.org/2000/svg" fill="none" viewBox="0 0 14 14"><path fill="#000" d="M6.53 0h.93c.05 0 .1.02.14.03.28.04.57.06.85.12a6.9 6.9 0 0 1 3.72 2.14c.9 1 1.49 2.16 1.72 3.5l.11.75v.93l-.03.11c-.03.24-.04.48-.09.72a6.93 6.93 0 0 1-5.66 5.6l-.76.1h-.93l-.13-.03c-.28-.04-.57-.06-.85-.12a6.87 6.87 0 0 1-3.72-2.14 6.8 6.8 0 0 1-1.72-3.5L0 7.47v-.92l.03-.12c.03-.24.04-.48.09-.72A6.93 6.93 0 0 1 5.78.1l.75-.1Zm.03 3.14v-.76c0-.08-.01-.12-.08-.15-.55-.3-1.09-.6-1.63-.88a.18.18 0 0 0-.14-.02 6 6 0 0 0-2.42 1.78.18.18 0 0 0-.03.13l.4 1.82c.01.06.05.1.1.13.4.2.8.4 1.2.58a.2.2 0 0 0 .17-.01l2.36-1.73c.04-.04.07-.1.07-.15v-.74Zm.89-.01v.74c0 .06.04.13.09.17.77.58 1.56 1.14 2.33 1.71.08.06.13.06.21.02a53.8 53.8 0 0 1 1.24-.63.24.24 0 0 0 .05-.12l.38-1.75a.27.27 0 0 0-.04-.16 6.02 6.02 0 0 0-2.4-1.77.2.2 0 0 0-.14.01l-1.64.88a.2.2 0 0 0-.08.15v.75ZM2.39 5.99.95 7.55c-.02.03-.03.08-.02.13a5.9 5.9 0 0 0 1.04 2.75 110.38 110.38 0 0 0 1.93.1 36.3 36.3 0 0 0 .83-1 312.16 312.16 0 0 0-.95-2.8.2.2 0 0 0-.1-.1l-1.3-.64ZM7 10.06H5.59c-.1 0-.15.02-.21.1l-.73.87c-.05.06-.06.12-.03.2a113.02 113.02 0 0 1 .52 1.58 5.93 5.93 0 0 0 3.3.13.27.27 0 0 0 .16-.13l.76-1.63c.04-.07.03-.12-.02-.18l-.73-.85a.27.27 0 0 0-.18-.08H7.01Zm6.08-2.44a.46.46 0 0 0-.06-.09L11.7 6.06c-.05-.05-.09-.06-.15-.03l-1.19.59a.2.2 0 0 0-.1.1 379.74 379.74 0 0 0-.97 2.8l.02.08a36.62 36.62 0 0 0 .8.9c.02.02.05.02.07.02l2.03-.4c.04-.01.07-.04.1-.07.43-.74.7-1.57.79-2.43Z"/></svg>